/* XPM */
static char *_e4ddba217d648058240890a1c32a6a5vxeaA7zuSsOU6mOY[] = {
/* columns rows colors chars-per-pixel */
"32 32 40 1 ",
"  c #282008",
". c #202020",
"X c #282828",
"o c gray22",
"O c #403018",
"+ c #483818",
"@ c #503818",
"# c #584020",
"$ c #704828",
"% c #484848",
"& c #505050",
"* c #606060",
"= c gray44",
"- c gray47",
"; c #805028",
": c #885830",
"> c #905830",
", c #986038",
"< c #A06038",
"1 c #A86840",
"2 c #B07040",
"3 c #B87848",
"4 c #C87848",
"5 c #D08050",
"6 c #D88850",
"7 c #E88858",
"8 c #F09058",
"9 c #F89860",
"0 c #F8A070",
"q c #888888",
"w c #989898",
"e c gray66",
"r c gray69",
"t c #F8B080",
"y c #F8B890",
"u c #F8C0A0",
"i c #C0C0C0",
"p c #D0D0D0",
"a c #D8D8D8",
"s c #F8D8C0",
/* pixels */
"XXXXXXXXXXXXXXXXXXXXXXXXXXXXXXXX",
"&aaaaaaaaaa=&eaaaae%&=aaeq*%%%%%",
"&aqeee%%%%ooooooooo........aaaaa",
"&ieeew%%%%%%%%%%%%%%%%%%%%&=qqqq",
"&iweee%*******************&=wew-",
".iqeww%=====&%%%%%%%======&=wwww",
".ieqqe%====o=&=q-&o.%=====&&&&&%",
"o..%&&o====ty5&&&%%X.=====&.....",
"q=%o..o===9su85ooooX.=====&&&&=e",
"aaaaaao===&#3y8&11o.X=====&&&iai",
"qewieeo===7<8y81#8#.%=====&&&aew",
"qwweeqo==7746t0613#X======&&&aqq",
"eqqqqeo===2t8005:$#%======&&%aqq",
"&&=qqqo===58075,33#=======&&%e&&",
"...oooo===8743,303;$======&.....",
"&%oX..o======,23>>$;$$====&&&&&&",
"&=raaa.=====35,2$;:<74,$==&qai=X",
"&rreqq.====55<2$241;364,$=&=qqo.",
"&aewwe.===;5<2$263>;,11::=&=wwo.",
"&aqeqq.===>;<>263<#2521,$=&=weo.",
"&&&=eq.==,>$<343>;#522>:#=&=eqo.",
"&&o.oo.==<$<343::#O55<2;+=&=weo.",
"&&&oXX.=,>$<32>#+O:15>2$+=&&&&o.",
"&iir=&.=,1$23<#@ :2:11>$#=&....o",
"&apppp.=>>>23:@ :3211,:+#=&XXXo&",
"&pqwew.=31,,,<+:233,,:+#;=&qeee-",
"&pqeeq.===62<3474,1,:#+;==&=eqq&",
"&pweee.===37555553::#+;;==&=qqq&",
"&pewqq.=======555555555===&=qqw&",
"&pqqqq.===================&&&&&o",
"&r****..........................",
"&........&oXXXXXXXXXXo&&&&&&&&&&"
};
